<?xml version="1.0" encoding="UTF-8" standalone="no"?>
<svg
   clip-rule="evenodd"
   fill-rule="evenodd"
   stroke-linejoin="round"
   stroke-miterlimit="2"
   viewBox="0 0 64 64"
   version="1.1"
   id="svg1"
   sodipodi:docname="macchiato_matrix.svg"
   inkscape:version="1.3.2 (091e20ef0f, 2023-11-25)"
   xmlns:inkscape="http://www.inkscape.org/namespaces/inkscape"
   xmlns:sodipodi="http://sodipodi.sourceforge.net/DTD/sodipodi-0.dtd"
   xmlns="http://www.w3.org/2000/svg"
   xmlns:svg="http://www.w3.org/2000/svg">
  <defs
     id="defs1" />
  <sodipodi:namedview
     id="namedview1"
     pagecolor="#ffffff"
     bordercolor="#000000"
     borderopacity="0.25"
     inkscape:showpageshadow="2"
     inkscape:pageopacity="0.0"
     inkscape:pagecheckerboard="0"
     inkscape:deskcolor="#d1d1d1"
     inkscape:zoom="6.2890625"
     inkscape:cx="27.746584"
     inkscape:cy="38.240994"
     inkscape:window-width="1920"
     inkscape:window-height="1011"
     inkscape:window-x="0"
     inkscape:window-y="0"
     inkscape:window-maximized="1"
     inkscape:current-layer="svg1" />
  <ellipse
     cx="21.624"
     cy="22.613"
     fill="#181926"
     rx="11.099"
     ry="8.306"
     transform="matrix(2.88315 0 0 3.85264 -30.3444 -55.1209)"
     id="ellipse1"
     style="fill:#1e1e2e;fill-opacity:1" />
  <g
     id="g5"
     transform="matrix(0.06538462,0,0,0.06538462,10.161537,19.96923)">
    <path
       d="m 87.7,-64.1 v 496.2 h 35.7 V 444 H 74 V -76 h 49.4 v 11.9 z"
       id="path1-3"
       style="fill:#cdd7f4;fill-opacity:1"
       inkscape:label="path1-3" />
    <path
       d="m 240.3,93.2 v 25.1 h 0.7 c 6.7,-9.6 14.8,-17 24.2,-22.2 9.4,-5.3 20.3,-7.9 32.5,-7.9 11.7,0 22.4,2.3 32.1,6.8 9.7,4.5 17,12.6 22.1,24 5.5,-8.1 13,-15.3 22.4,-21.5 9.4,-6.2 20.6,-9.3 33.5,-9.3 9.8,0 18.9,1.2 27.3,3.6 8.4,2.4 15.5,6.2 21.5,11.5 6,5.3 10.6,12.1 14,20.6 3.3,8.5 5,18.7 5,30.7 V 278.7 H 424.7 V 173.6 c 0,-6.2 -0.2,-12.1 -0.7,-17.6 -0.5,-5.5 -1.8,-10.3 -3.9,-14.3 -2.2,-4.1 -5.3,-7.3 -9.5,-9.7 -4.2,-2.4 -9.9,-3.6 -17,-3.6 -7.2,0 -13,1.4 -17.4,4.1 -4.4,2.8 -7.9,6.3 -10.4,10.8 -2.5,4.4 -4.2,9.4 -5,15.1 -0.8,5.6 -1.3,11.3 -1.3,17 v 103.3 h -50.9 v -104 c 0,-5.5 -0.1,-10.9 -0.4,-16.3 -0.2,-5.4 -1.3,-10.3 -3.1,-14.9 -1.8,-4.5 -4.8,-8.2 -9,-10.9 -4.2,-2.7 -10.3,-4.1 -18.5,-4.1 -2.4,0 -5.6,0.5 -9.5,1.6 -3.9,1.1 -7.8,3.1 -11.5,6.1 -3.7,3 -6.9,7.3 -9.5,12.9 -2.6,5.6 -3.9,13 -3.9,22.1 V 278.8 H 192.3 V 93.2 Z"
       id="path2-6"
       style="fill:#cdd7f4;fill-opacity:1" />
    <path
       d="M 580.3,432.1 V -64.1 H 544.6 V -76 H 594 v 520 h -49.4 v -11.9 z"
       id="path3-0"
       style="fill:#cdd7f4;fill-opacity:1" />
  </g>
</svg>
